PathFileType	4	(X/Y/Z)	 s04c0403.trc
DataRate	CameraRate	NumFrames	NumMarkers	Units	OrigDataRate	OrigDataStartFrame	OrigNumFrames
200	200	4	50	mm	200	251	2000
Frame#	Time	racr			lacr			c7			jug			rlel			rdr			llel			ldr			s2			lic			ric			lasi			rasi			rpsi			lpsi			rgt			lgt			rth1			rth2			rth3			rth4			rlfc			rmfc			rsh1			rsh2			rsh3			rsh4			rlmal			rmmal			rcal			rtoe			rmt5			lth1			lth2			lth4			lth3			llfc			lmfc			lsh1			lsh2			lsh3			lsh4			llmal			lmmal			lcal			ltoe			lmt5			SBIKE			LBIKE			RBIKE			
		X1	Y1	Z1	X2	Y2	Z2	X3	Y3	Z3	X4	Y4	Z4	X5	Y5	Z5	X6	Y6	Z6	X7	Y7	Z7	X8	Y8	Z8	X9	Y9	Z9	X10	Y10	Z10	X11	Y11	Z11	X12	Y12	Z12	X13	Y13	Z13	X14	Y14	Z14	X15	Y15	Z15	X16	Y16	Z16	X17	Y17	Z17	X18	Y18	Z18	X19	Y19	Z19	X20	Y20	Z20	X21	Y21	Z21	X22	Y22	Z22	X23	Y23	Z23	X24	Y24	Z24	X25	Y25	Z25	X26	Y26	Z26	X27	Y27	Z27	X28	Y28	Z28	X29	Y29	Z29	X30	Y30	Z30	X31	Y31	Z31	X32	Y32	Z32	X33	Y33	Z33	X34	Y34	Z34	X35	Y35	Z35	X36	Y36	Z36	X37	Y37	Z37	X38	Y38	Z38	X39	Y39	Z39	X40	Y40	Z40	X41	Y41	Z41	X42	Y42	Z42	X43	Y43	Z43	X44	Y44	Z44	X45	Y45	Z45	X46	Y46	Z46	X47	Y47	Z47	X48	Y48	Z48	X49	Y49	Z49	X50	Y50	Z50	
251	1.2550	476.727454	1482.610123	-99.646326	482.136581	1474.949053	-394.573672	456.459040	1531.133077	-257.626630	478.550706	1383.716402	-249.292087	495.372335	1163.059728	-11.171960	703.351168	947.466998	-55.300371	509.531335	1184.911505	-492.542833	711.117843	950.019458	-459.416922	-40.399336	1189.183786	-279.943436	128.031938	1186.388723	-418.101517	116.083359	1168.251886	-106.421185	156.032462	1137.461444	-372.992239	156.950258	1113.913718	-148.994832	-7.229206	1221.325405	-229.822030	-7.220885	1231.252864	-306.549601	55.572589	1111.153912	-94.402146	83.955459	1128.941290	-468.759531	137.386886	965.889327	-74.317683	195.538679	899.930692	-84.724444	216.136386	817.114570	-89.695025	224.300734	917.051115	-102.180724	266.901456	681.277614	-116.857434	244.020586	667.686976	-228.973661	195.216036	575.959733	-95.090783	169.068582	489.402861	-111.797874	103.469561	433.611333	-118.735502	196.423346	477.173400	-136.766899	31.451170	302.093657	-131.393204	55.575016	305.391414	-216.172377	-44.119498	286.028852	-172.631284	242.323988	198.288655	-151.709227	169.461806	191.867614	-99.050980	138.702353	1075.612391	-473.338894	223.593642	1061.098150	-476.505380	238.639321	1090.492749	-459.324185	292.194834	1004.964771	-488.162051	426.965409	913.651153	-466.998854	462.379484	895.848521	-359.191213	390.316020	802.824255	-484.578287	370.113934	720.939545	-460.227822	309.738250	655.896563	-453.641710	395.296540	713.221192	-431.319896	234.177164	531.839680	-436.548669	234.902352	538.978386	-347.550075	153.518554	508.849240	-391.538462	454.059560	496.297548	-403.477306	382.933490	457.726176	-463.223045	-177.030323	934.165159	-279.826429	-2.853608	86.072820	-484.950501	-15.106092	80.534914	-84.175051	
252	1.2600	476.759141	1482.547173	-99.669714	482.214580	1474.793360	-394.576300	456.451396	1531.117785	-257.581835	478.556125	1383.686663	-249.263881	495.514973	1163.153515	-11.017415	703.275333	947.406462	-55.308781	509.440745	1184.810018	-492.534422	710.856558	949.893828	-459.361846	-40.412989	1189.200326	-279.945308	128.025586	1186.371593	-418.092033	116.054053	1168.253114	-106.422406	155.973306	1137.461646	-372.969240	156.915222	1113.916520	-148.959514	-7.229196	1221.325453	-229.822088	-7.234156	1231.279459	-306.556502	55.541056	1111.151058	-94.387133	83.931592	1128.964665	-468.769103	137.338267	965.867095	-74.309925	195.486382	899.921328	-84.721007	216.088885	817.093284	-89.681793	224.273242	917.041456	-102.166153	266.846073	681.266640	-116.836384	243.952418	667.681536	-228.962704	195.171006	575.937337	-95.090174	169.035399	489.402645	-111.773129	103.456237	433.576879	-118.724078	196.385256	477.159933	-136.752375	31.464892	302.035806	-131.390395	55.599053	305.342514	-216.170686	-44.104420	285.950155	-172.637801	242.357383	198.279905	-151.693317	169.505902	191.813397	-99.058753	138.678597	1075.645841	-473.345497	223.579941	1061.113843	-476.485735	238.608243	1090.512345	-459.313047	292.182711	1004.985376	-488.119403	426.944068	913.709671	-466.966358	462.380909	895.881860	-359.152452	390.276949	802.882214	-484.555331	370.087914	720.965645	-460.188958	309.703015	655.967669	-453.630706	395.259658	713.289411	-431.276747	234.145035	531.895053	-436.558380	234.872362	539.014980	-347.542311	153.466919	508.899688	-391.541568	454.012526	496.320175	-403.477519	382.893412	457.772563	-463.222501	-177.020834	934.169061	-279.827269	-2.863942	86.078000	-484.949570	-15.099116	80.534793	-84.176217	
253	1.2650	476.787833	1482.519757	-99.665579	482.288458	1474.642432	-394.545401	456.484456	1531.087178	-257.539714	478.554027	1383.665542	-249.241010	495.663966	1163.203161	-10.877536	703.222522	947.329125	-55.300308	509.352539	1184.679673	-492.525193	710.601751	949.778171	-459.333856	-40.447055	1189.202343	-279.949253	128.041653	1186.370913	-418.122718	116.015840	1168.261428	-106.419507	155.914891	1137.425084	-372.868469	156.886412	1113.915153	-148.964545	-7.256366	1221.340130	-229.831747	-7.221066	1231.296846	-306.583889	55.493747	1111.142273	-94.402426	83.904033	1128.961423	-468.765571	137.306563	965.869478	-74.312137	195.418902	899.918983	-84.698689	216.025499	817.065096	-89.678796	224.225406	916.989165	-102.161055	266.780662	681.241677	-116.828297	243.906863	667.660708	-228.943548	195.106209	575.919728	-95.084728	169.007096	489.375327	-111.773684	103.441813	433.530884	-118.736697	196.571912	477.315347	-136.436233	31.488041	301.971406	-131.389973	55.600162	305.294568	-216.171556	-44.088596	285.898298	-172.651484	242.375622	198.275780	-151.704362	169.527251	191.799771	-99.060458	138.678076	1075.664229	-473.344580	223.570804	1061.145345	-476.483708	238.590735	1090.536946	-459.273305	292.167673	1005.007255	-488.089670	426.924665	913.754127	-466.927682	462.359875	895.899021	-359.092991	390.267962	802.929416	-484.529406	370.061839	721.026263	-460.169482	309.680525	656.018561	-453.599618	395.235211	713.317512	-431.259021	234.110645	531.937320	-436.552644	234.827394	539.049234	-347.560703	153.436916	508.969230	-391.530101	453.976123	496.352869	-403.461319	382.857950	457.801851	-463.212720	-177.013671	934.176069	-279.825753	-2.863251	86.067470	-484.939530	-15.102782	80.540254	-84.172150	
254	1.2700	476.820377	1482.457065	-99.662997	482.360533	1474.499214	-394.511507	456.504306	1531.061361	-257.471694	478.586277	1383.648270	-249.174222	495.823286	1163.236581	-10.778213	703.212430	947.232437	-55.253086	509.240978	1184.528513	-492.520774	710.337851	949.673635	-459.305565	-40.460706	1189.200077	-279.977718	128.033664	1186.351110	-418.086319	115.955396	1168.311933	-106.412559	155.935410	1137.441555	-372.932090	156.833985	1113.912517	-148.971652	-7.254378	1221.328708	-229.868003	-7.249293	1231.308771	-306.584551	55.465978	1111.149044	-94.418087	83.900987	1128.974844	-468.769098	137.234549	965.850049	-74.300192	195.363894	899.900382	-84.700737	215.945623	817.052801	-89.667819	224.170312	916.976978	-102.136876	266.715178	681.240054	-116.830358	243.857182	667.640802	-228.932179	195.046629	575.898440	-95.076610	168.979542	489.346140	-111.786065	103.398758	433.506431	-118.748045	196.320119	477.085746	-136.743575	31.473910	301.906865	-131.383359	55.607634	305.261335	-216.170810	-44.070794	285.820781	-172.647297	242.412873	198.274122	-151.705261	169.555754	191.774870	-99.044590	138.659002	1075.661611	-473.340636	223.575621	1061.145286	-476.449816	238.568587	1090.548745	-459.265981	292.176031	1005.040373	-488.057562	426.934523	913.802931	-466.896874	462.340802	895.952855	-359.069735	390.258388	802.969764	-484.508263	370.054250	721.078494	-460.148598	309.666422	656.054173	-453.576441	395.211298	713.380450	-431.261243	234.106475	531.970198	-436.533208	234.799186	539.094071	-347.535506	153.406740	509.011133	-391.539586	453.955081	496.386951	-403.474846	382.823168	457.840219	-463.219206	-176.977805	934.093624	-279.788975	-2.856521	86.065782	-484.937530	-15.102911	80.535065	-84.180210	
